<?xml version="1.0"?>
<svg width="290" height="271" xmlns="http://www.w3.org/2000/svg" xmlns:svg="http://www.w3.org/2000/svg" preserveAspectRatio="xMidYMid meet" version="1.0">
 <g class="layer">
  <title>Layer 1</title>
  <g fill="#000000" id="svg_1" transform="matrix(0.1 0 0 -0.1 0 0)">
   <path d="m1964,-93c-120,-40 -457,-227 -440,-245c4,-3 71,-5 149,-3c163,3 248,-11 350,-57c128,-58 199,-140 244,-278c51,-160 28,-361 -89,-763c-12,-41 -12,-44 14,-66c36,-31 177,-77 225,-73c35,3 40,7 66,60c40,84 142,396 167,517c20,91 22,124 17,255c-6,179 -25,257 -95,390c-62,117 -134,191 -238,242c-75,37 -82,39 -188,41c-94,3 -122,-1 -182,-20z" fill="#ffffff" id="svg_2"/>
   <path d="m655,-180c-128,-18 -251,-84 -345,-186c-134,-146 -186,-332 -161,-576c45,-439 244,-937 528,-1321c186,-251 405,-406 457,-324c8,12 30,103 50,202c44,224 105,490 152,660c86,308 116,355 226,355c55,0 59,1 47,17c-26,30 -150,83 -198,83c-94,0 -141,-98 -230,-485c-22,-93 -54,-244 -71,-335c-40,-211 -48,-240 -65,-240c-34,0 -196,231 -272,388c-94,196 -168,433 -198,633c-17,115 -20,393 -4,471c33,162 77,256 161,344c115,120 250,166 495,168c125,1 139,3 116,14c-44,23 -284,103 -357,118c-87,18 -253,25 -331,14z" fill="#ffffff" id="svg_3"/>
   <path d="m1877,-1488c128,-122 398,-289 571,-352c34,-12 65,-27 68,-31c3,-5 13,-5 23,1c10,5 44,9 75,8c74,-2 90,13 88,82c-1,51 -27,121 -48,127c-6,2 -17,-10 -24,-27c-7,-18 -24,-39 -37,-47c-32,-21 -144,-20 -220,2c-93,27 -249,105 -387,194c-71,46 -136,85 -145,88c-9,2 7,-18 36,-45z" fill="#ffffff" id="svg_4"/>
   <path d="m1810,-1717c61,-79 319,-279 436,-340c44,-23 88,-51 99,-63c18,-20 18,-21 -1,-47c-53,-70 -123,-85 -231,-49c-60,20 -182,91 -267,156c-32,25 -76,58 -97,74c-21,16 -41,27 -44,24c-10,-10 39,-61 149,-155c172,-147 339,-240 448,-250c51,-5 59,-3 83,22c26,25 27,31 22,83c-4,32 -9,72 -13,90l-6,32l79,0c98,0 113,12 113,86c-1,50 -37,158 -54,159c-5,0 -14,-15 -21,-34c-6,-18 -24,-45 -40,-58c-26,-23 -34,-25 -87,-19c-32,4 -76,13 -98,21c-89,32 -242,120 -355,205c-65,49 -123,90 -128,90c-5,0 1,-12 13,-27z" fill="#ffffff" id="svg_5"/>
   <path d="m1616,-2178c-8,-14 12,-155 31,-212c40,-121 130,-190 247,-190c79,0 151,25 221,78l50,37l-95,6c-139,9 -188,37 -351,197c-53,52 -99,90 -103,84z" fill="#ffffff" id="svg_6"/>
  </g>
 </g>
</svg>