<?xml version="1.0" encoding="utf-8"?>
<svg viewBox="0 0 500 500" xmlns="http://www.w3.org/2000/svg">
  <text style="fill: rgb(51, 51, 51); font-family: Arial, sans-serif; font-size: 23.9px; white-space: pre; opacity: 0.6;" x="-19.133" y="422.821"> </text>
  <text style="white-space: pre; fill: rgb(51, 51, 51); font-family: Arial, sans-serif; font-size: 25.3px; opacity: 0.1;" x="570.189" y="163.562">-</text>
  <text style="white-space: pre; fill: rgb(51, 51, 51); font-family: Arial, sans-serif; font-size: 50px;" x="177.444" y="417.08"> </text>
  <text style="white-space: pre; fill: rgb(51, 51, 51); font-family: Arial, sans-serif; font-size: 29.4px;" x="438.842" y="407.579"> </text>
  <text style="white-space: pre; fill: rgb(51, 51, 51); font-family: Arial, sans-serif; font-size: 29.4px;" x="447.243" y="403.659"> </text>
  <text style="white-space: pre; fill: rgb(51, 51, 51); font-family: Arial, sans-serif; font-size: 29.4px;" x="241.695" y="197.55"> </text>
  <text style="white-space: pre; fill: rgb(51, 51, 51); font-family: Arial, sans-serif; font-size: 29.4px;" x="220.972" y="207.071"> </text>
  <text style="white-space: pre; fill: rgb(51, 51, 51); font-family: Arial, sans-serif; font-size: 29.4px;" x="450.044" y="207.632"> </text>
  <text style="white-space: pre; fill: rgb(51, 51, 51); font-family: Arial, sans-serif; font-size: 29.4px;" x="441.643" y="205.391"> </text>
  <text style="white-space: pre; fill: rgb(51, 51, 51); font-family: Arial, sans-serif; font-size: 29.4px;" x="356.511" y="194.75"> </text>
  <text style="white-space: pre; fill: rgb(51, 51, 51); font-family: Arial, sans-serif; font-size: 29.4px;" x="332.427" y="200.911"> </text>
  <text style="white-space: pre; fill: rgb(51, 51, 51); font-family: Arial, sans-serif; font-size: 29.4px;" x="324.026" y="200.351"> </text>
  <text style="white-space: pre; fill: rgb(51, 51, 51); font-family: Arial, sans-serif; font-size: 29.4px;" x="219.852" y="206.511"> </text>
  <text style="white-space: pre; fill: rgb(51, 51, 51); font-family: Arial, sans-serif; font-size: 29.4px;" x="420.92" y="201.471"> </text>
  <text style="white-space: pre; fill: rgb(51, 51, 51); font-family: Arial, sans-serif; font-size: 29.4px;" x="399.077" y="136.502"> </text>
  <g transform="matrix(0.119171, 0, 0, -0.101325, 91.506368, 290.66253)" fill="#000000" stroke="none" style="">
    <path d="M1964 2617 c-120 -40 -457 -227 -440 -245 4 -3 71 -5 149 -3 163 3 248 -11 350 -57 128 -58 199 -140 244 -278 51 -160 28 -361 -89 -763 -12 -41 -12 -44 14 -66 36 -31 177 -77 225 -73 35 3 40 7 66 60 40 84 142 396 167 517 20 91 22 124 17 255 -6 179 -25 257 -95 390 -62 117 -134 191 -238 242 -75 37 -82 39 -188 41 -94 3 -122 -1 -182 -20z"/>
    <path d="M655 2530 c-128 -18 -251 -84 -345 -186 -134 -146 -186 -332 -161 -576 45 -439 244 -937 528 -1321 186 -251 405 -406 457 -324 8 12 30 103 50 202 44 224 105 490 152 660 86 308 116 355 226 355 55 0 59 1 47 17 -26 30 -150 83 -198 83 -94 0 -141 -98 -230 -485 -22 -93 -54 -244 -71 -335 -40 -211 -48 -240 -65 -240 -34 0 -196 231 -272 388 -94 196 -168 433 -198 633 -17 115 -20 393 -4 471 33 162 77 256 161 344 115 120 250 166 495 168 125 1 139 3 116 14 -44 23 -284 103 -357 118 -87 18 -253 25 -331 14z"/>
    <path d="M1877 1222 c128 -122 398 -289 571 -352 34 -12 65 -27 68 -31 3 -5 13 -5 23 1 10 5 44 9 75 8 74 -2 90 13 88 82 -1 51 -27 121 -48 127 -6 2 -17 -10 -24 -27 -7 -18 -24 -39 -37 -47 -32 -21 -144 -20 -220 2 -93 27 -249 105 -387 194 -71 46 -136 85 -145 88 -9 2 7 -18 36 -45z"/>
    <path d="M1810 993 c61 -79 319 -279 436 -340 44 -23 88 -51 99 -63 18 -20 18 -21 -1 -47 -53 -70 -123 -85 -231 -49 -60 20 -182 91 -267 156 -32 25 -76 58 -97 74 -21 16 -41 27 -44 24 -10 -10 39 -61 149 -155 172 -147 339 -240 448 -250 51 -5 59 -3 83 22 26 25 27 31 22 83 -4 32 -9 72 -13 90 l-6 32 79 0 c98 0 113 12 113 86 -1 50 -37 158 -54 159 -5 0 -14 -15 -21 -34 -6 -18 -24 -45 -40 -58 -26 -23 -34 -25 -87 -19 -32 4 -76 13 -98 21 -89 32 -242 120 -355 205 -65 49 -123 90 -128 90 -5 0 1 -12 13 -27z"/>
    <path d="M1616 532 c-8 -14 12 -155 31 -212 40 -121 130 -190 247 -190 79 0 151 25 221 78 l50 37 -95 6 c-139 9 -188 37 -351 197 -53 52 -99 90 -103 84z"/>
  </g>
  <text style="fill: rgb(51, 51, 51); font-family: Arial, sans-serif; font-size: 29.4px; white-space: pre;" transform="matrix(1.613375, 0, 0, 2.244249, -40.131263, -452.179067)"><tspan x="83.376" y="364.513">   </tspan><tspan style="font-size: 44.4px; font-weight: 700;">Clinica </tspan><tspan x="83.376" dy="1.3em">​</tspan><tspan style="font-size: 44.4px; font-weight: 700;">DentoMed</tspan></text>
</svg>