<?xml version="1.0" standalone="no"?>
<!DOCTYPE svg PUBLIC "-//W3C//DTD SVG 20010904//EN"
 "http://www.w3.org/TR/2001/REC-SVG-20010904/DTD/svg10.dtd">
<svg version="1.0" xmlns="http://www.w3.org/2000/svg"
 width="290.000000pt" height="271.000000pt" viewBox="0 0 290.000000 271.000000"
 preserveAspectRatio="xMidYMid meet">

<g transform="translate(0.000000,271.000000) scale(0.100000,-0.100000)"
fill="#000000" stroke="none">
<path d="M1964 2617 c-120 -40 -457 -227 -440 -245 4 -3 71 -5 149 -3 163 3
248 -11 350 -57 128 -58 199 -140 244 -278 51 -160 28 -361 -89 -763 -12 -41
-12 -44 14 -66 36 -31 177 -77 225 -73 35 3 40 7 66 60 40 84 142 396 167 517
20 91 22 124 17 255 -6 179 -25 257 -95 390 -62 117 -134 191 -238 242 -75 37
-82 39 -188 41 -94 3 -122 -1 -182 -20z"/>
<path d="M655 2530 c-128 -18 -251 -84 -345 -186 -134 -146 -186 -332 -161
-576 45 -439 244 -937 528 -1321 186 -251 405 -406 457 -324 8 12 30 103 50
202 44 224 105 490 152 660 86 308 116 355 226 355 55 0 59 1 47 17 -26 30
-150 83 -198 83 -94 0 -141 -98 -230 -485 -22 -93 -54 -244 -71 -335 -40 -211
-48 -240 -65 -240 -34 0 -196 231 -272 388 -94 196 -168 433 -198 633 -17 115
-20 393 -4 471 33 162 77 256 161 344 115 120 250 166 495 168 125 1 139 3
116 14 -44 23 -284 103 -357 118 -87 18 -253 25 -331 14z"/>
<path d="M1877 1222 c128 -122 398 -289 571 -352 34 -12 65 -27 68 -31 3 -5
13 -5 23 1 10 5 44 9 75 8 74 -2 90 13 88 82 -1 51 -27 121 -48 127 -6 2 -17
-10 -24 -27 -7 -18 -24 -39 -37 -47 -32 -21 -144 -20 -220 2 -93 27 -249 105
-387 194 -71 46 -136 85 -145 88 -9 2 7 -18 36 -45z"/>
<path d="M1810 993 c61 -79 319 -279 436 -340 44 -23 88 -51 99 -63 18 -20 18
-21 -1 -47 -53 -70 -123 -85 -231 -49 -60 20 -182 91 -267 156 -32 25 -76 58
-97 74 -21 16 -41 27 -44 24 -10 -10 39 -61 149 -155 172 -147 339 -240 448
-250 51 -5 59 -3 83 22 26 25 27 31 22 83 -4 32 -9 72 -13 90 l-6 32 79 0 c98
0 113 12 113 86 -1 50 -37 158 -54 159 -5 0 -14 -15 -21 -34 -6 -18 -24 -45
-40 -58 -26 -23 -34 -25 -87 -19 -32 4 -76 13 -98 21 -89 32 -242 120 -355
205 -65 49 -123 90 -128 90 -5 0 1 -12 13 -27z"/>
<path d="M1616 532 c-8 -14 12 -155 31 -212 40 -121 130 -190 247 -190 79 0
151 25 221 78 l50 37 -95 6 c-139 9 -188 37 -351 197 -53 52 -99 90 -103 84z"/>
</g>
</svg>
